<svg xmlns="http://www.w3.org/2000/svg" width="89.999" height="90" viewBox="0 0 89.999 90">
  <g id="Grupo_339" data-name="Grupo 339" transform="translate(-662.687 252.584)">
    <path id="Trazado_233" data-name="Trazado 233" d="M766.161-245.109a5.808,5.808,0,0,1-1.671,1.095c-.924.214-1.732-.669-1.761-1.737-.03-1.1-.007-2.193-.007-3.392-1,0-1.9-.021-2.792.006-1,.03-1.9-.085-2.279-1.2-.358-1.062.268-1.694,1.035-2.25h4.849a4.5,4.5,0,0,1,2.626,2.626Z" transform="translate(-13.475)" fill="#fff"/>
    <path id="Trazado_234" data-name="Trazado 234" d="M766.161-151.769a3.964,3.964,0,0,1-4.454,2.635c-.8-.069-1.613.016-2.418-.019a1.74,1.74,0,0,1-1.749-1.721,1.72,1.72,0,0,1,1.761-1.7c1.1-.032,2.2-.007,3.418-.007,0-.988.023-1.885-.005-2.781-.032-1,.078-1.91,1.19-2.291,1.067-.365,1.7.275,2.257,1.035Z" transform="translate(-13.475 -13.475)" fill="#fff"/>
    <path id="Trazado_235" data-name="Trazado 235" d="M670.2-252.584a5.8,5.8,0,0,1,1.095,1.676c.211.929-.672,1.727-1.749,1.757s-2.145.006-3.38.006c0,1.069.008,2.094,0,3.12-.011,1.26-.681,2.059-1.712,2.061s-1.71-.8-1.725-2.053c-.009-.739.054-1.483-.011-2.216a3.907,3.907,0,0,1,2.635-4.351Z" fill="#fff"/>
    <path id="Trazado_236" data-name="Trazado 236" d="M680.5-252.584c1.2.876,1.562,1.821.85,2.648a2.539,2.539,0,0,1-1.522.756,30.379,30.379,0,0,1-3.109.04,1.694,1.694,0,0,1-1.808-1.148,1.665,1.665,0,0,1,.681-2.027,1.958,1.958,0,0,0,.261-.269Z" fill="#fff"/>
    <path id="Trazado_237" data-name="Trazado 237" d="M701.308-252.584c.166.151.422.273.482.459.2.6.577,1.318.4,1.817a2.171,2.171,0,0,1-1.458,1.108,18.913,18.913,0,0,1-2.9.065c-1.012.036-1.9-.135-2.258-1.231-.352-1.07.3-1.686,1.09-2.218Z" transform="translate(-4.568)" fill="#fff"/>
    <path id="Trazado_238" data-name="Trazado 238" d="M753.029-252.584c.166.151.421.273.482.459.2.6.576,1.318.4,1.817a2.173,2.173,0,0,1-1.458,1.107,18.536,18.536,0,0,1-2.9.065c-1.009.034-1.9-.13-2.258-1.23-.349-1.071.3-1.686,1.091-2.218Z" transform="translate(-13.475)" fill="#fff"/>
    <path id="Trazado_239" data-name="Trazado 239" d="M766.161-234.8c-.891,1.208-1.822,1.564-2.649.851a2.558,2.558,0,0,1-.756-1.523c-.12-.99-.017-2-.042-3.008a1.737,1.737,0,0,1,1.151-1.907,1.662,1.662,0,0,1,2.079.767.858.858,0,0,0,.217.173Z" transform="translate(-13.475)" fill="#fff"/>
    <path id="Trazado_240" data-name="Trazado 240" d="M766.161-183.084c-.885,1.209-1.818,1.565-2.648.852a2.547,2.547,0,0,1-.758-1.524,30.959,30.959,0,0,1-.037-3.109,1.687,1.687,0,0,1,1.146-1.808,1.664,1.664,0,0,1,2.026.683,1.959,1.959,0,0,0,.271.259Z" transform="translate(-13.475 -8.904)" fill="#fff"/>
    <path id="Trazado_241" data-name="Trazado 241" d="M732.219-252.584c1.3.947,1.552,2.02.683,2.912-.738.757-5.1.784-5.866.036-.9-.879-.59-2.121.739-2.948Z" transform="translate(-8.906)" fill="#fff"/>
    <path id="Trazado_242" data-name="Trazado 242" d="M766.161-214.2a1.839,1.839,0,0,1-2.181,1.189c-.856-.192-1.255-.9-1.259-2.137,0-.806.024-1.613-.008-2.417-.04-.989.176-1.825,1.223-2.169,1.074-.354,1.689.3,2.225,1.09Z" transform="translate(-13.475 -4.569)" fill="#fff"/>
    <path id="Trazado_243" data-name="Trazado 243" d="M766.161-193.388c-.58.8-1.254,1.421-2.341,1a1.631,1.631,0,0,1-1.1-1.637c-.008-1.07,0-2.141-.006-3.211a1.665,1.665,0,0,1,1.169-1.786,1.661,1.661,0,0,1,2.016.705,2.5,2.5,0,0,0,.258.279Z" transform="translate(-13.475 -7.458)" fill="#fff"/>
    <path id="Trazado_244" data-name="Trazado 244" d="M766.161-203.692a5.119,5.119,0,0,1-1.012.912,1.671,1.671,0,0,1-2.415-1.516c-.049-1.069,0-2.141-.017-3.212a1.708,1.708,0,0,1,1.2-1.865,1.649,1.649,0,0,1,2.046.825,1.4,1.4,0,0,0,.2.209Z" transform="translate(-13.475 -6.014)" fill="#fff"/>
    <path id="Trazado_245" data-name="Trazado 245" d="M766.161-224.5c-.5.837-1.147,1.462-2.2,1.139-1.036-.318-1.291-1.154-1.246-2.155.036-.8.037-1.612,0-2.416-.045-1,.207-1.839,1.245-2.154,1.055-.321,1.705.3,2.2,1.141Z" transform="translate(-13.475 -3.127)" fill="#fff"/>
    <path id="Trazado_246" data-name="Trazado 246" d="M766.161-162.477a1.839,1.839,0,0,1-2.18,1.188c-.858-.195-1.254-.892-1.261-2.135,0-.805.023-1.612-.007-2.416-.037-.987.175-1.822,1.223-2.168,1.076-.356,1.688.3,2.225,1.086Z" transform="translate(-13.475 -13.475)" fill="#fff"/>
    <path id="Trazado_247" data-name="Trazado 247" d="M721.916-252.584c.713.539,1.355,1.119,1.063,2.15a1.646,1.646,0,0,1-1.7,1.285c-.9.018-1.806-.017-2.709.013-.954.032-1.867-.058-2.26-1.079a1.9,1.9,0,0,1,.956-2.369Z" transform="translate(-7.462)" fill="#fff"/>
    <path id="Trazado_248" data-name="Trazado 248" d="M711.612-252.584a5.119,5.119,0,0,1,.913,1.011,1.675,1.675,0,0,1-1.518,2.416c-1.068.05-2.141,0-3.211.016a1.706,1.706,0,0,1-1.865-1.2,1.646,1.646,0,0,1,.826-2.044,1.4,1.4,0,0,0,.208-.2Z" transform="translate(-6.019)" fill="#fff"/>
    <path id="Trazado_249" data-name="Trazado 249" d="M690.8-252.584c.841.5,1.462,1.147,1.14,2.2-.316,1.038-1.154,1.29-2.154,1.247-.8-.035-1.612-.037-2.416,0-1,.045-1.839-.208-2.154-1.246-.32-1.054.295-1.707,1.14-2.2Z" transform="translate(-3.132)" fill="#fff"/>
    <path id="Trazado_250" data-name="Trazado 250" d="M766.161-172.781c-.5.834-1.143,1.463-2.2,1.138-1.039-.319-1.29-1.154-1.246-2.154.035-.8.036-1.612,0-2.416-.044-1,.208-1.837,1.246-2.154,1.058-.322,1.7.306,2.2,1.142Z" transform="translate(-13.475 -10.343)" fill="#fff"/>
    <path id="Trazado_251" data-name="Trazado 251" d="M742.523-252.584c.837.5,1.463,1.146,1.139,2.2-.318,1.037-1.155,1.289-2.155,1.246-.8-.035-1.611-.035-2.415,0-1,.043-1.836-.21-2.153-1.248-.322-1.058.3-1.705,1.139-2.2Z" transform="translate(-10.348)" fill="#fff"/>
    <path id="Trazado_252" data-name="Trazado 252" d="M693.766-200.863q0-8.331,0-16.661c0-2.742,1.272-4.012,4.012-4.013q16.66,0,33.322,0c2.742,0,4.011,1.269,4.012,4.012q.006,16.609,0,33.22c0,2.886-1.228,4.113-4.113,4.114q-16.609.006-33.221,0c-2.741,0-4.009-1.27-4.012-4.012Q693.76-192.533,693.766-200.863Zm3.518-17.175v34.313H731.6v-34.313Z" transform="translate(-6.741 -6.734)" fill="#fff"/>
    <path id="Trazado_253" data-name="Trazado 253" d="M751.912-236.43a3.5,3.5,0,0,1-.485,1q-5.544,5.6-11.13,11.151a4.507,4.507,0,0,1-.824.737,1.613,1.613,0,0,1-2.124-.235,1.605,1.605,0,0,1-.219-2.124,4.707,4.707,0,0,1,.74-.823q5.532-5.538,11.067-11.071c.259-.259.507-.529.969-1.012-1.385,0-2.532,0-3.679,0-1.663,0-2.469-.555-2.474-1.694s.846-1.749,2.451-1.75q3.686,0,7.372,0c1.646,0,2.247.6,2.252,2.263.009,2.626,0,5.251,0,7.877,0,.8-.272,1.559-1.082,1.743A2.4,2.4,0,0,1,753-230.66a2.179,2.179,0,0,1-.588-1.5c-.08-1.294-.026-2.6-.026-3.9Z" transform="translate(-13.475)" fill="#fff"/>
    <path id="Trazado_254" data-name="Trazado 254" d="M679.063-238.49c.837.771,1.7,1.517,2.506,2.318q4.731,4.7,9.429,9.422a4.752,4.752,0,0,1,.731.832,1.579,1.579,0,0,1-.265,2.113,1.555,1.555,0,0,1-2.116.2,8.37,8.37,0,0,1-1.111-1.023q-5.392-5.39-10.768-10.795a3.856,3.856,0,0,1-.522-.979l-.453.33c0,1.3.011,2.593,0,3.889-.014,1.228-.643,1.976-1.654,2.009a1.788,1.788,0,0,1-1.782-2.007q-.025-4.04,0-8.079a1.777,1.777,0,0,1,2.013-1.987q4.04-.029,8.079,0a1.79,1.79,0,0,1,1.982,1.708c.016,1.04-.767,1.716-2.038,1.728s-2.544,0-3.816,0Z" fill="#fff"/>
    <path id="Trazado_255" data-name="Trazado 255" d="M752.387-165.418c0-1.57-.012-2.872,0-4.174.014-1.2.688-1.961,1.7-1.961a1.777,1.777,0,0,1,1.733,1.956c.021,2.727.025,5.454,0,8.18a1.76,1.76,0,0,1-1.962,1.937q-4.089.034-8.18,0a1.765,1.765,0,0,1-1.928-1.759c.016-1.011.772-1.661,1.986-1.674,1.3-.014,2.6,0,4.179,0-.427-.444-.664-.7-.911-.947q-5.569-5.571-11.138-11.142a5.29,5.29,0,0,1-.676-.746,1.592,1.592,0,0,1,.17-2.123,1.614,1.614,0,0,1,2.2-.233,6.256,6.256,0,0,1,.82.743q5.539,5.531,11.075,11.063C751.687-166.067,751.935-165.845,752.387-165.418Z" transform="translate(-13.475 -13.475)" fill="#fff"/>
    <path id="Trazado_256" data-name="Trazado 256" d="M678.977-162.917c1.571,0,2.871-.012,4.171,0,1.212.014,1.965.669,1.98,1.683a1.763,1.763,0,0,1-1.936,1.749q-4.09.031-8.18,0a1.755,1.755,0,0,1-1.954-1.941q-.036-4.091,0-8.18a1.77,1.77,0,0,1,1.741-1.947c1.012,0,1.677.761,1.691,1.968.015,1.3,0,2.6,0,4.179.435-.412.693-.645.938-.89q5.536-5.532,11.071-11.065a6.125,6.125,0,0,1,.819-.745,1.588,1.588,0,0,1,2.124.154,1.624,1.624,0,0,1,.245,2.195,6.066,6.066,0,0,1-.743.821q-5.495,5.5-10.994,11C679.694-163.676,679.445-163.406,678.977-162.917Z" transform="translate(0 -13.475)" fill="#fff"/>
    <path id="Trazado_257" data-name="Trazado 257" d="M666.159-152.584c1.15,0,2.184-.012,3.218,0a1.773,1.773,0,0,1,1.963,1.708,1.776,1.776,0,0,1-1.951,1.726c-1.075.016-2.15.024-3.225,0a3.415,3.415,0,0,1-3.434-3.374c-.037-1.141-.028-2.285,0-3.426a1.725,1.725,0,0,1,1.753-1.807,1.72,1.72,0,0,1,1.669,1.79C666.181-154.9,666.159-153.821,666.159-152.584Z" transform="translate(0 -13.475)" fill="#fff"/>
    <path id="Trazado_258" data-name="Trazado 258" d="M729.922-149.147c-.572,0-1.145.028-1.715-.008a1.672,1.672,0,0,1-1.667-1.773,1.636,1.636,0,0,1,1.688-1.642c1.142-.038,2.287-.037,3.429,0a1.727,1.727,0,0,1,1.75,1.716,1.76,1.76,0,0,1-1.77,1.705C731.066-149.122,730.494-149.146,729.922-149.147Z" transform="translate(-8.907 -13.475)" fill="#fff"/>
    <path id="Trazado_259" data-name="Trazado 259" d="M678.255-152.578c.571,0,1.144-.025,1.714.005a1.732,1.732,0,0,1,1.715,1.646,1.71,1.71,0,0,1-1.6,1.758c-1.241.058-2.49.058-3.73-.006a1.623,1.623,0,0,1-1.539-1.685,1.664,1.664,0,0,1,1.625-1.711C677.042-152.611,677.65-152.578,678.255-152.578Z" transform="translate(0 -13.475)" fill="#fff"/>
    <path id="Trazado_260" data-name="Trazado 260" d="M662.73-237.09c0-.606-.04-1.214.009-1.815a1.662,1.662,0,0,1,1.751-1.582,1.619,1.619,0,0,1,1.647,1.576c.053,1.242.054,2.49-.005,3.732a1.683,1.683,0,0,1-1.686,1.559,1.721,1.721,0,0,1-1.7-1.555c-.058-.633-.011-1.276-.011-1.915Z" fill="#fff"/>
    <path id="Trazado_261" data-name="Trazado 261" d="M666.152-164.687c0,.6.034,1.213-.006,1.815a1.655,1.655,0,0,1-1.7,1.632,1.645,1.645,0,0,1-1.705-1.631c-.048-1.208-.052-2.423.005-3.631a1.7,1.7,0,0,1,1.748-1.6,1.714,1.714,0,0,1,1.651,1.6C666.189-165.9,666.151-165.293,666.152-164.687Z" transform="translate(0 -13.475)" fill="#fff"/>
    <path id="Trazado_262" data-name="Trazado 262" d="M662.724-216.495c0-.538-.026-1.077.006-1.614a1.743,1.743,0,0,1,1.749-1.719,1.711,1.711,0,0,1,1.667,1.692c.04,1.176.043,2.356,0,3.531a1.642,1.642,0,0,1-1.688,1.645,1.665,1.665,0,0,1-1.721-1.618c-.045-.636-.008-1.278-.008-1.917Z" transform="translate(0 -4.569)" fill="#fff"/>
    <path id="Trazado_263" data-name="Trazado 263" d="M666.154-185.373c0,.6.032,1.212-.008,1.815a1.733,1.733,0,0,1-1.7,1.66,1.715,1.715,0,0,1-1.7-1.658c-.046-1.208-.054-2.422,0-3.63a1.642,1.642,0,0,1,1.749-1.58,1.644,1.644,0,0,1,1.648,1.578c.047.6.009,1.209.009,1.815Z" transform="translate(0 -8.902)" fill="#fff"/>
    <path id="Trazado_264" data-name="Trazado 264" d="M698.965-152.574c.606,0,1.214-.039,1.815.009a1.644,1.644,0,0,1,1.561,1.664,1.614,1.614,0,0,1-1.5,1.72,35.2,35.2,0,0,1-3.83,0,1.682,1.682,0,0,1-1.538-1.708,1.726,1.726,0,0,1,1.676-1.685c.6-.036,1.21-.006,1.815-.006Z" transform="translate(-4.573 -13.475)" fill="#fff"/>
    <path id="Trazado_265" data-name="Trazado 265" d="M666.153-195.666c0,.6.036,1.213-.01,1.815a1.711,1.711,0,0,1-1.649,1.6,1.7,1.7,0,0,1-1.75-1.6c-.057-1.208-.053-2.421-.005-3.63a1.654,1.654,0,0,1,1.7-1.635,1.663,1.663,0,0,1,1.7,1.633C666.186-196.878,666.153-196.271,666.153-195.666Z" transform="translate(0 -7.458)" fill="#fff"/>
    <path id="Trazado_266" data-name="Trazado 266" d="M666.158-226.637c0,.538.022,1.078-.005,1.614a1.7,1.7,0,0,1-1.721,1.735,1.678,1.678,0,0,1-1.693-1.657c-.047-1.209-.052-2.423.008-3.631a1.659,1.659,0,0,1,1.759-1.58,1.677,1.677,0,0,1,1.638,1.6c.045.635.008,1.277.008,1.916Z" transform="translate(0 -3.128)" fill="#fff"/>
    <path id="Trazado_267" data-name="Trazado 267" d="M688.563-149.149c-.571,0-1.145.03-1.715-.005a1.711,1.711,0,0,1-1.7-1.755,1.673,1.673,0,0,1,1.684-1.661c1.176-.039,2.355-.042,3.531,0a1.675,1.675,0,0,1,1.654,1.691,1.7,1.7,0,0,1-1.636,1.719C689.777-149.114,689.169-149.15,688.563-149.149Z" transform="translate(-3.133 -13.475)" fill="#fff"/>
    <path id="Trazado_268" data-name="Trazado 268" d="M709.254-149.148c-.572,0-1.145.028-1.715-.006a1.734,1.734,0,0,1-1.717-1.751,1.7,1.7,0,0,1,1.691-1.664c1.175-.038,2.354-.042,3.529,0a1.644,1.644,0,0,1,1.647,1.687,1.668,1.668,0,0,1-1.621,1.72c-.6.045-1.209.008-1.814.008Z" transform="translate(-6.017 -13.475)" fill="#fff"/>
    <path id="Trazado_269" data-name="Trazado 269" d="M719.62-149.151c-.6,0-1.213.037-1.815-.01a1.665,1.665,0,0,1-1.613-1.725,1.64,1.64,0,0,1,1.65-1.682c1.175-.043,2.354-.041,3.529,0a1.7,1.7,0,0,1,1.684,1.67,1.73,1.73,0,0,1-1.721,1.744C720.764-149.123,720.191-149.15,719.62-149.151Z" transform="translate(-7.463 -13.475)" fill="#fff"/>
    <path id="Trazado_270" data-name="Trazado 270" d="M750.669-149.153c-.606,0-1.213.035-1.815-.007a1.734,1.734,0,0,1-1.658-1.705,1.706,1.706,0,0,1,1.656-1.7c1.209-.045,2.422-.047,3.631,0a1.621,1.621,0,0,1,1.58,1.642,1.669,1.669,0,0,1-1.58,1.755C751.883-149.112,751.274-149.154,750.669-149.153Z" transform="translate(-13.475 -13.475)" fill="#fff"/>
    <path id="Trazado_271" data-name="Trazado 271" d="M662.731-206.048c0-.6-.039-1.213.009-1.814a1.713,1.713,0,0,1,1.74-1.618,1.7,1.7,0,0,1,1.665,1.688c.04,1.175.044,2.354,0,3.528a1.648,1.648,0,0,1-1.687,1.649,1.664,1.664,0,0,1-1.719-1.619C662.694-204.836,662.731-205.443,662.731-206.048Z" transform="translate(0 -6.012)" fill="#fff"/>
    <path id="Trazado_272" data-name="Trazado 272" d="M666.153-175c0,.605.036,1.213-.008,1.815a1.686,1.686,0,0,1-1.729,1.618,1.67,1.67,0,0,1-1.67-1.573c-.058-1.241-.058-2.49,0-3.731a1.661,1.661,0,0,1,1.673-1.566,1.687,1.687,0,0,1,1.726,1.621C666.189-176.215,666.154-175.607,666.153-175Z" transform="translate(0 -10.343)" fill="#fff"/>
    <path id="Trazado_273" data-name="Trazado 273" d="M740.412-152.577c.572,0,1.146-.034,1.715.009a1.685,1.685,0,0,1,1.608,1.737,1.666,1.666,0,0,1-1.58,1.662c-1.242.056-2.49.059-3.732,0a1.665,1.665,0,0,1-1.557-1.682,1.683,1.683,0,0,1,1.629-1.716C739.132-152.612,739.773-152.578,740.412-152.577Z" transform="translate(-10.347 -13.475)" fill="#fff"/>
    <path id="Trazado_274" data-name="Trazado 274" d="M704.109-211.192c0,1.761.031,3.373-.009,4.983-.035,1.454-1.33,2.369-2.444,1.674a2.221,2.221,0,0,1-.938-1.5c-.113-1.809-.086-3.632-.024-5.447a3.217,3.217,0,0,1,3.115-3.122c4.137-.054,8.276-.036,12.414-.012a1.631,1.631,0,0,1,1.65,1.58,1.713,1.713,0,0,1-1.439,1.8,5.515,5.515,0,0,1-1.005.048q-5.1,0-10.2,0Z" transform="translate(-5.931 -5.49)" fill="#fff"/>
    <path id="Trazado_275" data-name="Trazado 275" d="M700.672-196.606c0-.842-.026-1.684.006-2.525a1.676,1.676,0,0,1,1.62-1.723,1.7,1.7,0,0,1,1.788,1.675c.055,1.748.055,3.5,0,5.249a1.7,1.7,0,0,1-1.786,1.68,1.694,1.694,0,0,1-1.619-1.731C700.647-194.855,700.673-195.731,700.672-196.606Z" transform="translate(-5.117 -7.348)" fill="#fff"/>
  </g>
</svg>
