<svg xmlns="http://www.w3.org/2000/svg" width="76.3" height="90" viewBox="0 0 76.3 90">
  <g id="Grupo_337" data-name="Grupo 337" transform="translate(-330.742 264.071)">
    <path id="Trazado_214" data-name="Trazado 214" d="M385.01-246.052c-.765-.716-1.4-1.285-2.006-1.883a1.59,1.59,0,0,1-.234-2.371,1.549,1.549,0,0,1,2.367,0q3.373,3.1,6.7,6.251a1.629,1.629,0,0,1,.189,2.308,1.586,1.586,0,0,1-2.367.009c-.39-.334-.759-.695-1.137-1.044l-1.109-1.03-2.7,2.8a4.637,4.637,0,0,1,.786.527,32.553,32.553,0,0,1,10.539,23.81c.023,1.184-.582,1.872-1.564,1.88-.928.007-1.535-.646-1.624-1.757-.017-.206-.016-.413-.02-.619a28.554,28.554,0,0,0-3.852-13.843,29.2,29.2,0,0,0-29.848-14.648,29.4,29.4,0,0,0-24.673,23.464c-3.263,16.429,8.239,32.68,24.742,34.938,1.286.175,2.587.255,3.883.342,1.235.084,1.967.7,1.911,1.666-.053.944-.782,1.517-1.96,1.494a31.765,31.765,0,0,1-23.863-10.873,31.789,31.789,0,0,1-8.369-23.853,32.479,32.479,0,0,1,24.693-29.7c1.148-.283,1.506-.739,1.383-1.85a23.928,23.928,0,0,1-.018-2.558c-1.054,0-2,.009-2.953,0-1.354-.016-1.967-.6-1.975-1.936q-.024-3.819,0-7.637a1.671,1.671,0,0,1,1.893-1.908q8.732-.017,17.462,0c1.334,0,1.925.615,1.931,1.976q.018,3.766,0,7.534c-.007,1.355-.6,1.949-1.94,1.97-.951.014-1.9,0-2.92,0v3.672c1.486.375,2.981.708,4.449,1.131A30.307,30.307,0,0,1,381.4-243.7a.877.877,0,0,0,1.373-.158C383.439-244.593,384.185-245.253,385.01-246.052Zm-15.1-9.762v-4.949H355.207v4.89a4.03,4.03,0,0,0,.456.057C360.382-255.813,365.1-255.814,369.914-255.814Zm-9.787,6.622h4.887v-3.3h-4.887Z" fill="#fff"/>
    <path id="Trazado_215" data-name="Trazado 215" d="M410.56-196.4a7.7,7.7,0,0,1-1.213,1.372c-.543.4-1.276.541-1.864.9a1.43,1.43,0,0,0-.66.9c-.026.234.366.593.651.761a7.84,7.84,0,0,0,1.485.629,1.974,1.974,0,0,1,1.469,2.4,19.591,19.591,0,0,1-3.609,8.9,2.84,2.84,0,0,1-1.988.708,19.305,19.305,0,0,1-2.253-.429,1.7,1.7,0,0,0-1.176.425c-.171.162-.016.666,0,1.017a.263.263,0,0,0,.042.107c1.508,2.978,1.312,3.429-1.676,5.043a45.763,45.763,0,0,1-6.821,2.721c-1.23.427-1.927-.024-2.495-1.229a17.21,17.21,0,0,0-.822-1.779,1.231,1.231,0,0,0-.869-.517c-.238-.008-.575.307-.716.562a16.422,16.422,0,0,0-.663,1.6,1.994,1.994,0,0,1-2.52,1.449,20.436,20.436,0,0,1-8.695-3.518,1.8,1.8,0,0,1-.721-2.324c.227-.653.56-1.274.743-1.937a1.117,1.117,0,0,0-.23-.891c-.131-.149-.54-.14-.793-.077a6.613,6.613,0,0,0-1.059.451c-2.052.914-2.545.774-3.809-1.117a21.718,21.718,0,0,1-3.172-7.383c-.369-1.654-.1-2.235,1.414-2.931a8.081,8.081,0,0,0,1.256-.575c.338-.234.85-.664.8-.9-.079-.37-.527-.73-.9-.956a12.49,12.49,0,0,0-1.59-.674,1.679,1.679,0,0,1-1.118-1.826,18.8,18.8,0,0,1,3.732-9.433,2.487,2.487,0,0,1,1.822-.618,22.375,22.375,0,0,1,2.362.487,1.442,1.442,0,0,0,1.074-.382c.181-.19.1-.662.073-1a1.736,1.736,0,0,0-.225-.527c-1.155-2.582-1.142-3.056,1.39-4.413a51.691,51.691,0,0,1,7.094-2.961c1.42-.5,2.1-.042,2.741,1.344a16.115,16.115,0,0,0,.775,1.674,1.09,1.09,0,0,0,.786.485,1.084,1.084,0,0,0,.752-.524,14.645,14.645,0,0,0,.751-1.811,1.854,1.854,0,0,1,2.173-1.292,20.352,20.352,0,0,1,9.132,3.637A1.74,1.74,0,0,1,402-208.7c-.2.62-.529,1.2-.7,1.831a1.186,1.186,0,0,0,.134.992,1.23,1.23,0,0,0,1,.046,11.284,11.284,0,0,1,1.914-.769,2.442,2.442,0,0,1,1.87.389A20.351,20.351,0,0,1,410.56-196.4Zm-31.477-12.188c.361.83.594,1.44.885,2.021.41.815.673,1.752-.113,2.329-1.387,1.022-1.958,3.218-4.214,3.007-.037,0-.072-.025-.111-.032-2.865-.585-2.865-.586-4.006,2.136-.089.212-.159.433-.234.652-.653,1.922-.67,1.969,1.242,2.673a2.213,2.213,0,0,1,1.685,2.416c-.045.883-.029,1.772-.006,2.658a2.027,2.027,0,0,1-1.393,2.149c-.668.264-1.3.613-2.13,1.01l2.254,4.972c.854-.378,1.456-.629,2.044-.908a2.1,2.1,0,0,1,2.783.574c.574.671,1.253,1.25,1.878,1.877a1.871,1.871,0,0,1,.543,2.088c-.809,2.428-.786,2.436,1.558,3.554.208.1.419.192.634.278,1.935.779,1.935.778,2.721-1.166.058-.142.126-.28.178-.425a1.834,1.834,0,0,1,2.027-1.376c1.654.219,3.613-.855,4.884,1.079a4.786,4.786,0,0,1,.3.622c.253.548.5,1.1.843,1.83l5-2.242c-.348-.8-.57-1.371-.84-1.92-.394-.8-.756-1.74.025-2.339,1.4-1.07,2-3.293,4.3-3.077a1.067,1.067,0,0,1,.113.024c2.86.56,2.86.56,3.985-2.171.072-.177.133-.36.2-.542.683-2,.7-2.035-1.265-2.756a2.159,2.159,0,0,1-1.64-2.329c.04-.884.04-1.773,0-2.658a2.141,2.141,0,0,1,1.536-2.3c.627-.244,1.224-.565,2-.926l-2.28-5.052c-2.065,1.219-3.629,1.72-5.628-.27-1.931-1.926-1.842-3.524-.63-5.63-1.259-.562-2.317-1.11-3.426-1.513-1.731-.629-1.746-.587-2.442,1.15-.649,1.621-.926,1.815-2.653,1.829-.848.007-1.7-.02-2.542,0a1.989,1.989,0,0,1-2.062-1.349c-.277-.666-.592-1.316-.979-2.171Z" transform="translate(-3.518 -3.276)" fill="#fff"/>
    <path id="Trazado_216" data-name="Trazado 216" d="M367.422-215.518c-.035,1.76-1.469,2.6-2.681,1.921-1-.562-1.938-1.25-2.9-1.893q-7.671-5.142-15.341-10.283c-.757-.5-1.332-1.09-1.157-2.067.247-1.376,1.68-1.873,2.985-1.012,3.212,2.119,6.4,4.268,9.6,6.409,2.75,1.84,5.515,3.658,8.231,5.547A7.027,7.027,0,0,1,367.422-215.518Z" transform="translate(-0.279 -0.038)" fill="#fff"/>
    <path id="Trazado_217" data-name="Trazado 217" d="M399.341-193.922a11.754,11.754,0,0,1-11.752,11.762A11.751,11.751,0,0,1,375.8-194a11.751,11.751,0,0,1,11.81-11.7A11.746,11.746,0,0,1,399.341-193.922Zm-3.6-.068a8.1,8.1,0,0,0-8.164-8.111,8.1,8.1,0,0,0-8.169,8.222,8.11,8.11,0,0,0,8.165,8.114A8.113,8.113,0,0,0,395.738-193.989Z" transform="translate(-2.375 -2.126)" fill="#fff"/>
  </g>
</svg>
