<svg id="icon_font_awesome_brands_linkedin-in" data-name="icon / font awesome / brands / linkedin-in" xmlns="http://www.w3.org/2000/svg" xmlns:xlink="http://www.w3.org/1999/xlink" width="20" height="19.998" viewBox="0 0 20 19.998">
  <defs>
    <linearGradient id="linear-gradient" x1="0.5" x2="0.5" y2="1" gradientUnits="objectBoundingBox">
      <stop offset="0" stop-color="#361591"/>
      <stop offset="1" stop-color="#0a0a13"/>
    </linearGradient>
  </defs>
  <path id="linkedin-in" d="M11.217,20H7.074V6.646h3.977V8.467h.058a4.381,4.381,0,0,1,3.923-2.156C19.4,6.311,20,9.364,20,12.663v7.332H15.858V13.5c0-1.492,0-3.535-2.156-3.535-2.191,0-2.486,1.73-2.486,3.423V20Zm-6.74,0H.33V6.646H4.477V19.995ZM2.4,4.824A2.412,2.412,0,1,1,4.8,2.4,2.415,2.415,0,0,1,2.4,4.824Z" transform="translate(0 0)" fill="url(#linear-gradient)"/>
</svg>
