<svg xmlns="http://www.w3.org/2000/svg" width="90.521" height="90" viewBox="0 0 90.521 90">
  <g id="Grupo_336" data-name="Grupo 336" transform="translate(-462.383 647.014)">
    <path id="Trazado_218" data-name="Trazado 218" d="M549.372-643.288H465.967c-.022.38-.059.729-.059,1.078-.006,2.621.008,5.242-.013,7.863-.01,1.133-.5,1.761-1.393,1.918a1.678,1.678,0,0,1-2.093-1.743c-.045-1.837-.018-3.675-.02-5.513,0-1.687-.007-3.374,0-5.061s.6-2.263,2.3-2.264q15.864,0,31.729,0h53.514c.3,0,.6,0,.9,0,1.45.027,2.039.588,2.047,2.029.017,3.193.01,6.387.01,9.58q0,24.989,0,49.978a9.755,9.755,0,0,1-4.917,9.043,8.576,8.576,0,0,1-4.378,1.243q-3.526.025-7.051.012a1.745,1.745,0,0,1-1.949-1.681,1.778,1.778,0,0,1,1.91-1.844c2.078-.043,4.159.017,6.236-.032a8.593,8.593,0,0,0,2.48-.351c2.646-.878,4.131-3.187,4.135-6.33q.017-11.614,0-23.227,0-16.675,0-33.35Z" fill="#fff"/>
    <path id="Trazado_219" data-name="Trazado 219" d="M495.573-578.928q0-6.507,0-13.014c0-1.487.454-1.984,1.89-2.241A52.992,52.992,0,0,0,518.6-602.8a1.931,1.931,0,0,1,2.705-.076,61.569,61.569,0,0,0,21.337,8.709,2.1,2.1,0,0,1,1.857,2.2c.007,8.736.021,17.472-.029,26.207a4.551,4.551,0,0,1-.736,2.175,51.309,51.309,0,0,1-17.94,17.721,46.444,46.444,0,0,1-4.808,2.482,2.525,2.525,0,0,1-1.868.018,52.354,52.354,0,0,1-22.823-20.28,4.854,4.854,0,0,1-.738-2.726C495.595-570.553,495.572-574.741,495.573-578.928Zm3.6-11.735c-.014.208-.044.444-.044.68q-.005,11.794.012,23.588a2.489,2.489,0,0,0,.385,1.251,49.2,49.2,0,0,0,19.69,17.994,1.476,1.476,0,0,0,1.5-.032,49.1,49.1,0,0,0,19.748-18.186,2.348,2.348,0,0,0,.34-1.169c.021-7.8.008-15.605.032-23.407a.87.87,0,0,0-.821-1.021,62.314,62.314,0,0,1-19.26-7.931,1.159,1.159,0,0,0-1.44.02,56.049,56.049,0,0,1-13.941,6.5C503.339-591.747,501.27-591.237,499.17-590.662Z" transform="translate(-10.512 -13.824)" fill="#fff"/>
    <path id="Trazado_220" data-name="Trazado 220" d="M466.018-616.5v1.307q0,21.961-.019,43.923c0,.859.218,1.12,1.1,1.111,4.369-.043,8.738-.024,13.107-.014a1.752,1.752,0,0,1,1.937,2.113,1.661,1.661,0,0,1-1.839,1.477c-2.953.016-5.906.01-8.858.01q-3.391,0-6.78,0c-1.73,0-2.273-.532-2.273-2.263q-.007-12.788,0-25.576,0-11.523,0-23.046c0-2.12.475-2.589,2.609-2.589q37.739,0,75.48,0a5.081,5.081,0,0,1,1.251.1,1.727,1.727,0,0,1,1.3,1.829,1.765,1.765,0,0,1-1.668,1.607c-.3.023-.6.01-.9.01H466.018Z" transform="translate(-0.001 -8.543)" fill="#fff"/>
    <path id="Trazado_221" data-name="Trazado 221" d="M487.09-603.537c-2.319,0-4.637.006-6.956,0-1.319,0-2.056-.632-2.073-1.731-.018-1.147.735-1.814,2.085-1.815q6.91-.007,13.821,0c1.337,0,2.144.682,2.14,1.782s-.8,1.761-2.153,1.765C491.667-603.533,489.379-603.537,487.09-603.537Z" transform="translate(-4.968 -12.651)" fill="#fff"/>
    <path id="Trazado_222" data-name="Trazado 222" d="M482.453-591.054c-.9,0-1.808.022-2.71-.007a1.644,1.644,0,0,1-1.678-1.549,1.568,1.568,0,0,1,1.4-1.878c2.009-.1,4.029-.1,6.038,0a1.559,1.559,0,0,1,1.414,1.864,1.622,1.622,0,0,1-1.663,1.561c-.932.031-1.866.007-2.8.007Z" transform="translate(-4.967 -16.621)" fill="#fff"/>
    <path id="Trazado_223" data-name="Trazado 223" d="M482.787-628.689a1.82,1.82,0,0,1-1.958-1.795,1.81,1.81,0,0,1,1.9-1.751,1.793,1.793,0,0,1,1.951,1.786A1.81,1.81,0,0,1,482.787-628.689Z" transform="translate(-5.845 -4.683)" fill="#fff"/>
    <path id="Trazado_224" data-name="Trazado 224" d="M499.423-628.689a1.824,1.824,0,0,1-1.913-1.749,1.81,1.81,0,0,1,1.948-1.8,1.79,1.79,0,0,1,1.905,1.741A1.809,1.809,0,0,1,499.423-628.689Z" transform="translate(-11.131 -4.683)" fill="#fff"/>
    <path id="Trazado_225" data-name="Trazado 225" d="M516.13-628.689a1.824,1.824,0,0,1-1.941-1.812,1.81,1.81,0,0,1,1.92-1.735,1.793,1.793,0,0,1,1.931,1.8A1.8,1.8,0,0,1,516.13-628.689Z" transform="translate(-16.416 -4.683)" fill="#fff"/>
    <path id="Trazado_226" data-name="Trazado 226" d="M534.015-572.722a9.106,9.106,0,0,1-.57.809q-3.881,4.349-7.774,8.685c-1.305,1.455-2.654,1.3-3.583-.417-.817-1.508-1.639-3.013-2.439-4.529a1.848,1.848,0,0,1,.592-2.729c.988-.523,1.937-.154,2.6,1.019a25.474,25.474,0,0,0,1.745,2.79,3.972,3.972,0,0,1,.45-.863q3.8-4.294,7.639-8.562c1.193-1.333,2.018-1.333,3.146.107,3.6,4.6,4.566,9.718,2.485,15.189a14.62,14.62,0,0,1-11.924,9.728,15.356,15.356,0,0,1-17.822-16.313,15.4,15.4,0,0,1,19.516-13.665c1.349.4,1.9,1.163,1.609,2.26-.3,1.161-1.159,1.594-2.571,1.23a11.517,11.517,0,0,0-10.256,1.954,11.661,11.661,0,0,0-4.3,12.287,11.751,11.751,0,0,0,9.9,8.7,11.18,11.18,0,0,0,11.054-4.872c2.672-3.738,2.831-7.813,1-11.989A9.19,9.19,0,0,0,534.015-572.722Z" transform="translate(-14.622 -20.577)" fill="#fff"/>
  </g>
</svg>
