<svg xmlns="http://www.w3.org/2000/svg" width="90.016" height="90" viewBox="0 0 90.016 90">
  <g id="Grupo_338" data-name="Grupo 338" transform="translate(-514.161 222.473)">
    <path id="Trazado_227" data-name="Trazado 227" d="M537.393-199.749c-3.838,0-7.525.014-11.212-.015-.571,0-.678.293-.846.7a5.813,5.813,0,0,1-5.9,3.556,5.752,5.752,0,0,1-5.109-4.367,5.614,5.614,0,0,1,3.742-6.65,5.738,5.738,0,0,1,7.159,3.056,1.282,1.282,0,0,0,1.456.9c3.532-.04,7.064-.018,10.715-.018,0-.871-.007-1.687,0-2.5.014-1.233.535-1.88,1.737-1.72,1.608.214,2.469-.339,2.794-1.852a4.2,4.2,0,0,1,.371-.843,3.238,3.238,0,0,0-3.247-1.637c-2.288.138-4.593,0-6.889.051a1.853,1.853,0,0,1-2.1-1.284,2.006,2.006,0,0,0-2.607-1.574,1.1,1.1,0,0,1-.362,0,1.652,1.652,0,0,0-2.023,1.149,5.643,5.643,0,0,1-6.614,2.917,5.692,5.692,0,0,1-4.281-5.773,5.678,5.678,0,0,1,4.767-5.293,5.7,5.7,0,0,1,6.285,3.28,1.239,1.239,0,0,0,1.456.9c.994-.065,2,.019,2.991-.027a1.724,1.724,0,0,1,1.967,1.207c.424,1.377,1.288,1.783,2.744,1.68,2.074-.146,4.169-.059,6.254-.023a1.783,1.783,0,0,0,1.415-.592c1.5-1.505,3.022-2.982,4.546-4.46.939-.912,1.709-.981,2.54.019a2.194,2.194,0,0,0,3.177.65c.776-.412,1.2-.719,1.053-1.6a4.8,4.8,0,0,1,0-1.063,1.415,1.415,0,0,1,1.554-1.483q4.263-.03,8.524,0c.954.008,1.631.591,1.487,1.514-.273,1.754.438,2.675,2.139,3.016a5.561,5.561,0,0,1,.844.351c.383-.434.773-.927,1.216-1.366.979-.968,1.649-.967,2.624-.019,1.523,1.48,3.017,2.99,4.571,4.436a2.178,2.178,0,0,0,1.31.553c2.478.052,4.957.008,7.436.037.554.007.945-.106,1.1-.656.524-1.875,1.815-2.509,3.7-2.2.118.02.242-.009.362.005,1.5.178,2.549-.025,3.369-1.663,1.167-2.333,4.159-3.13,6.693-2.265a5.668,5.668,0,0,1,3.846,5.977,5.771,5.771,0,0,1-5.009,5,5.779,5.779,0,0,1-6.1-3.486c-.226-.555-.474-.85-1.1-.731a.828.828,0,0,1-.272,0c-1.754-.285-3.088.081-3.619,2-.2.712-.917.85-1.636.847-2.75-.011-5.5-.006-8.252,0-.513,0-2.037,1.043-2.059,1.5-.015.321.26.644.324.981.292,1.511,1.187,1.985,2.725,1.812,1.269-.143,1.779.474,1.79,1.761.007.792,0,1.584,0,2.467H584.6c2.448,0,4.9-.017,7.345.013a.924.924,0,0,0,1.042-.688,5.785,5.785,0,0,1,6.956-3.37,5.723,5.723,0,0,1,4.151,6.364,5.749,5.749,0,0,1-6.065,4.757,5.706,5.706,0,0,1-5.089-3.578c-.121-.263-.436-.627-.665-.63-3.743-.039-7.488-.028-11.353-.028,0,.867.006,1.683,0,2.5-.011,1.228-.54,1.883-1.735,1.724-1.6-.214-2.484.329-2.788,1.849-.076.374-.341.939-.188,1.087.548.528.876,1.375,1.873,1.367,2.66-.022,5.321.034,7.979-.027a1.97,1.97,0,0,1,2.243,1.361,2.053,2.053,0,0,0,2.468,1.542c1.183-.075,1.993-.1,2.609-1.421a5.588,5.588,0,0,1,6.651-2.638,5.686,5.686,0,0,1,4.108,5.809,5.717,5.717,0,0,1-4.853,5.229,5.714,5.714,0,0,1-6.2-3.3,1.238,1.238,0,0,0-1.457-.9c-1.054.064-2.115-.006-3.172.023a1.53,1.53,0,0,1-1.7-1.051c-.467-1.6-1.515-1.952-3.105-1.832-1.983.151-3.988.06-5.982.023a1.779,1.779,0,0,0-1.414.593c-1.5,1.505-3.021,2.983-4.546,4.461-.94.912-1.7.977-2.54-.024a2.2,2.2,0,0,0-3.18-.65c-.778.414-1.2.731-1.048,1.6a4.646,4.646,0,0,1,.008.886c-.025,1.113-.542,1.655-1.655,1.66q-4.126.021-8.253,0c-1.176-.005-1.684-.532-1.7-1.7-.008-.592,0-1.183-.008-1.775a1.315,1.315,0,0,0-.039-.206c-.785-.326-1.578-.684-2.4-.976a.857.857,0,0,0-.681.162c-.4.315-.732.7-1.1,1.052a1.527,1.527,0,0,1-2.5.005c-1.569-1.518-3.108-3.068-4.7-4.563a1.9,1.9,0,0,0-1.158-.486c-2.508-.044-5.017-.006-7.526-.035-.559-.007-.94.119-1.1.662-.534,1.87-1.825,2.5-3.706,2.193-.177-.029-.364.011-.544-.006-1.4-.133-2.38.032-3.135,1.6-1.124,2.335-4.136,3.188-6.661,2.353a5.666,5.666,0,0,1-3.924-5.929,5.746,5.746,0,0,1,4.935-5.065,5.725,5.725,0,0,1,6.107,3.324c.314.752.723.837,1.453.914,1.772.188,3.087-.13,3.621-2.036.2-.712.913-.848,1.635-.844,2.751.015,5.5.007,8.253,0,.506,0,2.04-1.057,2.056-1.5.01-.323-.268-.643-.331-.981-.285-1.524-1.2-1.971-2.727-1.807-1.267.137-1.778-.482-1.787-1.767C537.388-198.08,537.393-198.871,537.393-199.749Zm32.831,13.619,4.276-4.16c-.371-.327-.8-.7-1.217-1.076a1.511,1.511,0,0,1-.34-1.93c.581-1.294,1.126-2.6,1.649-3.921a1.543,1.543,0,0,1,1.556-1.112c.6,0,1.193,0,1.822,0v-5.681c-.534,0-1.012,0-1.49,0-1.259-.009-1.549-.264-1.969-1.4-.43-1.162-.921-2.307-1.455-3.427-.488-1.024-.471-1.473.383-2.281a10.435,10.435,0,0,1,1.077-.811l-4.255-4.187c-.346.359-.743.8-1.174,1.213a1.554,1.554,0,0,1-1.834.266c-1.352-.572-2.719-1.116-4.09-1.646a1.513,1.513,0,0,1-1.1-1.548c.008-.58,0-1.161,0-1.73h-5.8c0,.568,0,1.069,0,1.57-.012,1.078-.318,1.4-1.381,1.785-1.213.438-2.41.929-3.586,1.457a1.621,1.621,0,0,1-2.261-.357,10.888,10.888,0,0,1-.878-1.131l-4.4,4.246a13.241,13.241,0,0,1,1.156.9c.827.79.834,1.244.334,2.292-.534,1.12-1.017,2.267-1.45,3.428-.4,1.074-.724,1.354-1.906,1.362-.506,0-1.011,0-1.536,0v5.679c.568,0,1.077,0,1.586,0,1.133.01,1.457.288,1.846,1.316.451,1.187.945,2.361,1.486,3.511.469,1,.464,1.472-.326,2.218a12.547,12.547,0,0,1-1.277.944l4.422,4.285c.293-.371.607-.805.96-1.207a1.67,1.67,0,0,1,2.193-.362c1.225.563,2.48,1.071,3.755,1.517a1.6,1.6,0,0,1,1.26,1.7c-.016.549,0,1.1,0,1.651h5.806c0-.564.017-1.089,0-1.613a1.627,1.627,0,0,1,1.31-1.756c1.277-.435,2.52-.973,3.751-1.523a1.617,1.617,0,0,1,2.055.293C569.559-186.939,569.912-186.5,570.224-186.13Zm-47.346-29.225a2.891,2.891,0,0,0-2.863-2.85,2.879,2.879,0,0,0-2.935,2.777,2.889,2.889,0,0,0,2.907,2.9A2.891,2.891,0,0,0,522.879-215.355Zm78.359.014a2.888,2.888,0,0,0-2.85-2.865,2.884,2.884,0,0,0-2.948,2.764,2.889,2.889,0,0,0,2.894,2.911A2.893,2.893,0,0,0,601.238-215.341Zm-78.359,14.158a2.89,2.89,0,0,0-2.891-2.824,2.878,2.878,0,0,0-2.907,2.8,2.89,2.89,0,0,0,2.934,2.87A2.889,2.889,0,0,0,522.879-201.183Zm75.5,2.85a2.89,2.89,0,0,0,2.857-2.856,2.887,2.887,0,0,0-2.9-2.818,2.877,2.877,0,0,0-2.9,2.9A2.9,2.9,0,0,0,598.381-198.333Zm-78.413,8.525a2.876,2.876,0,0,0-2.888,2.822,2.89,2.89,0,0,0,2.862,2.852A2.89,2.89,0,0,0,522.879-187,2.893,2.893,0,0,0,519.968-189.808Zm78.352,5.674a2.892,2.892,0,0,0,2.917-2.8,2.886,2.886,0,0,0-2.837-2.876,2.879,2.879,0,0,0-2.961,2.84A2.889,2.889,0,0,0,598.321-184.134Z" transform="translate(0)" fill="#fff"/>
    <path id="Trazado_228" data-name="Trazado 228" d="M541.147-155.752q0-7.629,0-15.256a5.671,5.671,0,0,1,5.986-6.021q11.085-.007,22.17,0a5.663,5.663,0,0,1,5.907,5.925q.012,15.389,0,30.777a5.652,5.652,0,0,1-5.853,5.888q-11.172.017-22.346,0a5.66,5.66,0,0,1-5.862-5.881C541.138-145.464,541.146-150.608,541.147-155.752Zm12.979,18.466a4.24,4.24,0,0,1,1.767-4.976,3.927,3.927,0,0,1,4.518-.039,4.251,4.251,0,0,1,1.825,5.025c2.381,0,4.71.007,7.039,0a2.846,2.846,0,0,0,3.1-3.091q.008-15.353,0-30.705a2.867,2.867,0,0,0-3.16-3.118q-11,0-22,0a2.88,2.88,0,0,0-3.225,3.228q0,7.854,0,15.707,0,7.5.005,15a2.77,2.77,0,0,0,2.586,2.954C549.054-137.234,551.537-137.286,554.126-137.286Zm5.467-1.389a1.425,1.425,0,0,0-1.392-1.433,1.422,1.422,0,0,0-1.432,1.391,1.424,1.424,0,0,0,1.39,1.434A1.43,1.43,0,0,0,559.593-138.675Z" transform="translate(0.979 1.958)" fill="#fff"/>
    <path id="Trazado_229" data-name="Trazado 229" d="M568.113-201.157a9.952,9.952,0,0,1-9.945,9.923,9.955,9.955,0,0,1-9.921-9.948,9.952,9.952,0,0,1,9.943-9.924A9.961,9.961,0,0,1,568.113-201.157Zm-17.027-.039a7.107,7.107,0,0,0,7.089,7.123,7.116,7.116,0,0,0,7.1-7.117,7.106,7.106,0,0,0-7.137-7.076A7.109,7.109,0,0,0,551.086-201.2Z" transform="translate(0.979)" fill="#fff"/>
    <path id="Trazado_230" data-name="Trazado 230" d="M569.237-156.577l-2.253,1.7c-2.118-3.192-4.959-5.112-8.831-5.1-3.842.01-6.66,1.918-8.76,5.093l-2.25-1.677a12.643,12.643,0,0,1,10.1-6.216C562.38-163.13,566.3-160.889,569.237-156.577Z" transform="translate(0.979 1.458)" fill="#fff"/>
    <path id="Trazado_231" data-name="Trazado 231" d="M552.257-150.705l-2.336-1.557a9.2,9.2,0,0,1,7.494-4.845c3.918-.288,6.877,1.428,9.029,4.837L564.11-150.7a6.735,6.735,0,0,0-5.922-3.6A6.694,6.694,0,0,0,552.257-150.705Z" transform="translate(0.979 1.567)" fill="#fff"/>
    <path id="Trazado_232" data-name="Trazado 232" d="M563.627-147.815l-2.415,1.209a3.377,3.377,0,0,0-3-2.02,3.368,3.368,0,0,0-3.052,2.018l-2.441-1.219a5.85,5.85,0,0,1,5.611-3.645A5.792,5.792,0,0,1,563.627-147.815Z" transform="translate(0.979 1.958)" fill="#fff"/>
  </g>
</svg>
